<svg width="74" height="46" viewBox="0 0 74 46" fill="none" xmlns="http://www.w3.org/2000/svg">
<path d="M3 20C1.34315 20 1.44847e-07 21.3431 0 23C-1.44847e-07 24.6569 1.34315 26 3 26L3 20ZM73.1213 25.1213C74.2929 23.9498 74.2929 22.0503 73.1213 20.8787L54.0294 1.7868C52.8579 0.615227 50.9584 0.615227 49.7868 1.7868C48.6152 2.95837 48.6152 4.85787 49.7868 6.02944L66.7574 23L49.7868 39.9706C48.6152 41.1421 48.6152 43.0416 49.7868 44.2132C50.9584 45.3848 52.8579 45.3848 54.0294 44.2132L73.1213 25.1213ZM3 26L71 26L71 20L3 20L3 26Z" fill="white"/>
</svg>
