<svg width="26" height="28" viewBox="0 0 26 28" fill="none" xmlns="http://www.w3.org/2000/svg">
<path d="M14.6492 1.76001C14.6492 0.849158 13.9109 0.110767 13 0.110767C12.0891 0.110768 11.3508 0.849158 11.3508 1.76001L14.6492 1.76001ZM11.8338 27.4062C12.4779 28.0503 13.5221 28.0503 14.1662 27.4062L24.6619 16.9105C25.306 16.2664 25.306 15.2222 24.6619 14.5781C24.0178 13.934 22.9736 13.934 22.3295 14.5781L13 23.9076L3.67048 14.5781C3.02641 13.934 1.98217 13.934 1.3381 14.5781C0.694028 15.2222 0.694028 16.2664 1.3381 16.9105L11.8338 27.4062ZM11.3508 1.76001L11.3508 26.24L14.6492 26.24L14.6492 1.76001L11.3508 1.76001Z" fill="#27292D"/>
</svg>
