<svg width="14" height="14" viewBox="0 0 14 14" fill="none" xmlns="http://www.w3.org/2000/svg">
<circle cx="7" cy="7" r="6.46154" stroke="white" stroke-width="0.923077"/>
<path d="M6.2504 11V5.85506H7.74224V11H6.2504ZM6.99632 5.13783C6.72218 5.13783 6.49904 5.05814 6.32691 4.89876C6.15477 4.73937 6.0687 4.54173 6.0687 4.30585C6.0687 4.06996 6.15477 3.87232 6.32691 3.71294C6.49904 3.55355 6.72218 3.47386 6.99632 3.47386C7.27046 3.47386 7.4936 3.55036 7.66574 3.70337C7.83787 3.85001 7.92394 4.04127 7.92394 4.27716C7.92394 4.5258 7.83787 4.733 7.66574 4.89876C7.49998 5.05814 7.27684 5.13783 6.99632 5.13783Z" fill="white"/>
</svg>
