<svg width="344" height="446" viewBox="0 0 344 446" fill="none" xmlns="http://www.w3.org/2000/svg">
<g filter="url(#filter0_d_128_11)">
<path d="M105.125 251.548H238.783V410.067C238.783 415.002 233.162 417.831 229.198 414.892L175.532 375.095C173.407 373.519 170.501 373.519 168.375 375.095L114.71 414.892C110.746 417.831 105.125 415.002 105.125 410.067V251.548Z" fill="#2A2C2E"/>
</g>
<mask id="mask0_128_11" style="mask-type:alpha" maskUnits="userSpaceOnUse" x="105" y="251" width="134" height="166">
<path d="M105.125 251.548H238.783V410.067C238.783 415.002 233.162 417.831 229.198 414.892L175.532 375.095C173.407 373.519 170.501 373.519 168.375 375.095L114.71 414.892C110.746 417.831 105.125 415.002 105.125 410.067V251.548Z" fill="#D9D9D9"/>
</mask>
<g mask="url(#mask0_128_11)">
<rect x="148.676" y="268.819" width="48.0569" height="154.683" fill="#A8FF2F"/>
</g>
<g filter="url(#filter1_d_128_11)">
<path d="M203.777 46.3431C209.203 43.649 215.788 45.744 218.661 51.0781L233.237 78.1458C234.879 81.1961 237.837 83.3177 241.253 83.8952L271.566 89.0203C277.539 90.0302 281.636 95.5958 280.824 101.6L276.706 132.065C276.242 135.498 277.388 138.954 279.812 141.429L301.323 163.392C305.562 167.72 305.605 174.631 301.419 179.011L280.181 201.238C277.787 203.742 276.684 207.211 277.19 210.639L281.683 241.051C282.568 247.045 278.541 252.66 272.58 253.744L242.333 259.242C238.925 259.861 235.993 262.019 234.388 265.089L220.147 292.334C217.34 297.704 210.781 299.879 205.322 297.252L177.62 283.922C174.498 282.419 170.858 282.442 167.755 283.982L140.219 297.653C134.793 300.347 128.207 298.252 125.335 292.918L110.759 265.851C109.117 262.8 106.159 260.679 102.743 260.101L72.4302 254.976C66.4566 253.966 62.3603 248.401 63.1719 242.397L67.2899 211.931C67.7539 208.498 66.6077 205.043 64.1836 202.568L42.6727 180.604C38.4336 176.276 38.3911 169.366 42.5765 164.985L63.8153 142.759C66.2087 140.254 67.3123 136.785 66.806 133.358L62.3131 102.945C61.4278 96.9518 65.4551 91.3362 71.4158 90.2528L101.663 84.7548C105.071 84.1352 108.003 81.9774 109.608 78.907L123.849 51.662C126.656 46.2928 133.215 44.117 138.674 46.744L166.376 60.0748C169.498 61.5771 173.138 61.5547 176.241 60.0141L203.777 46.3431Z" fill="#A8FF2F"/>
</g>
<path d="M263.795 171.668C263.795 222.366 222.696 263.464 171.998 263.464C121.3 263.464 80.2017 222.366 80.2017 171.668C80.2017 120.97 121.3 79.8715 171.998 79.8715C222.696 79.8715 263.795 120.97 263.795 171.668ZM90.8363 171.668C90.8363 216.492 127.174 252.83 171.998 252.83C216.823 252.83 253.16 216.492 253.16 171.668C253.16 126.844 216.823 90.5061 171.998 90.5061C127.174 90.5061 90.8363 126.844 90.8363 171.668Z" fill="url(#paint0_radial_128_11)"/>
<path d="M147.147 191.935H155.272V195.635H147.147V191.935ZM147.497 198.835H156.647V202.66H142.597V185.16H156.322V188.985H147.497V198.835ZM167.395 202.66V200.135L167.07 199.51V194.86C167.07 194.11 166.836 193.535 166.37 193.135C165.92 192.718 165.195 192.51 164.195 192.51C163.545 192.51 162.886 192.618 162.22 192.835C161.553 193.035 160.986 193.318 160.52 193.685L158.92 190.46C159.686 189.96 160.603 189.576 161.67 189.31C162.753 189.026 163.828 188.885 164.895 188.885C167.095 188.885 168.795 189.393 169.995 190.41C171.211 191.41 171.82 192.985 171.82 195.135V202.66H167.395ZM163.395 202.885C162.311 202.885 161.395 202.701 160.645 202.335C159.895 201.968 159.32 201.468 158.92 200.835C158.536 200.201 158.345 199.493 158.345 198.71C158.345 197.876 158.553 197.16 158.97 196.56C159.403 195.943 160.061 195.476 160.945 195.16C161.828 194.826 162.97 194.66 164.37 194.66H167.57V197.135H165.02C164.253 197.135 163.711 197.26 163.395 197.51C163.095 197.76 162.945 198.093 162.945 198.51C162.945 198.926 163.103 199.26 163.42 199.51C163.736 199.76 164.17 199.885 164.72 199.885C165.236 199.885 165.703 199.76 166.12 199.51C166.553 199.243 166.87 198.843 167.07 198.31L167.72 200.06C167.47 200.993 166.978 201.701 166.245 202.185C165.528 202.651 164.578 202.885 163.395 202.885ZM174.818 202.66V189.11H179.343V193.06L178.668 191.935C179.068 190.918 179.718 190.16 180.618 189.66C181.518 189.143 182.61 188.885 183.893 188.885V193.16C183.676 193.126 183.485 193.11 183.318 193.11C183.168 193.093 183.001 193.085 182.818 193.085C181.851 193.085 181.068 193.351 180.468 193.885C179.868 194.401 179.568 195.251 179.568 196.435V202.66H174.818ZM194.678 188.885C195.728 188.885 196.678 189.101 197.528 189.535C198.378 189.951 199.045 190.601 199.528 191.485C200.028 192.368 200.278 193.51 200.278 194.91V202.66H195.528V195.685C195.528 194.718 195.328 194.018 194.928 193.585C194.545 193.135 194.003 192.91 193.303 192.91C192.803 192.91 192.345 193.026 191.928 193.26C191.511 193.476 191.186 193.818 190.953 194.285C190.72 194.751 190.603 195.36 190.603 196.11V202.66H185.853V189.11H190.378V192.96L189.503 191.835C190.02 190.851 190.728 190.118 191.628 189.635C192.528 189.135 193.545 188.885 194.678 188.885Z" fill="#419312"/>
<path d="M148.488 165.047L141.491 135.543C141.437 135.326 141.6 135.217 141.762 135.217H148.162C148.325 135.217 148.433 135.326 148.488 135.488L151.362 149.97H152.447L155.321 135.488C155.376 135.326 155.484 135.217 155.647 135.217H162.047C162.209 135.217 162.372 135.326 162.318 135.543L155.321 165.047V178.335C155.321 178.498 155.213 178.606 155.05 178.606H148.759C148.596 178.606 148.488 178.498 148.488 178.335V165.047ZM175.099 135.217C179.438 135.217 180.522 138.471 180.522 143.895V169.929C180.522 175.352 179.438 178.606 175.099 178.606H168.59C164.251 178.606 163.167 175.352 163.167 169.929V143.895C163.167 138.471 164.251 135.217 168.59 135.217H175.099ZM173.472 172.098V141.726H170.217V172.098H173.472ZM182.711 170.634V135.488C182.711 135.326 182.819 135.217 182.982 135.217H189.49C189.653 135.217 189.762 135.326 189.762 135.488V172.098H193.016V135.488C193.016 135.326 193.124 135.217 193.287 135.217H199.795C199.958 135.217 200.067 135.326 200.067 135.488V170.634C200.067 175.027 198.385 178.606 195.185 178.606H187.592C184.392 178.606 182.711 175.027 182.711 170.634Z" fill="#262626"/>
<defs>
<filter id="filter0_d_128_11" x="102.011" y="251.548" width="160.639" height="193.592" filterUnits="userSpaceOnUse" color-interpolation-filters="sRGB">
<feFlood flood-opacity="0" result="BackgroundImageFix"/>
<feColorMatrix in="SourceAlpha" type="matrix" values="0 0 0 0 0 0 0 0 0 0 0 0 0 0 0 0 0 0 127 0" result="hardAlpha"/>
<feOffset dx="10.377" dy="15.5656"/>
<feGaussianBlur stdDeviation="6.74508"/>
<feComposite in2="hardAlpha" operator="out"/>
<feColorMatrix type="matrix" values="0 0 0 0 0 0 0 0 0 0 0 0 0 0 0 0 0 0 0.25 0"/>
<feBlend mode="normal" in2="BackgroundImageFix" result="effect1_dropShadow_128_11"/>
<feBlend mode="normal" in="SourceGraphic" in2="effect1_dropShadow_128_11" result="shape"/>
</filter>
<filter id="filter1_d_128_11" x="28.8775" y="45.1694" width="286.241" height="275.509" filterUnits="userSpaceOnUse" color-interpolation-filters="sRGB">
<feFlood flood-opacity="0" result="BackgroundImageFix"/>
<feColorMatrix in="SourceAlpha" type="matrix" values="0 0 0 0 0 0 0 0 0 0 0 0 0 0 0 0 0 0 127 0" result="hardAlpha"/>
<feOffset dy="11.2633"/>
<feGaussianBlur stdDeviation="5.29377"/>
<feComposite in2="hardAlpha" operator="out"/>
<feColorMatrix type="matrix" values="0 0 0 0 0 0 0 0 0 0 0 0 0 0 0 0 0 0 0.37 0"/>
<feBlend mode="multiply" in2="BackgroundImageFix" result="effect1_dropShadow_128_11"/>
<feBlend mode="normal" in="SourceGraphic" in2="effect1_dropShadow_128_11" result="shape"/>
</filter>
<radialGradient id="paint0_radial_128_11" cx="0" cy="0" r="1" gradientUnits="userSpaceOnUse" gradientTransform="translate(171.946 172.002) rotate(145.976) scale(104.412)">
<stop offset="0.743924" stop-color="#4EC20C"/>
<stop offset="1" stop-color="#A8FF2F"/>
</radialGradient>
</defs>
</svg>
