<svg width="344" height="446" viewBox="0 0 344 446" fill="none" xmlns="http://www.w3.org/2000/svg">
<g filter="url(#filter0_d_128_21)">
<path d="M105.121 251.548H238.779V410.067C238.779 415.002 233.158 417.831 229.194 414.892L175.528 375.095C173.403 373.519 170.497 373.519 168.372 375.095L114.706 414.892C110.742 417.831 105.121 415.002 105.121 410.067V251.548Z" fill="#2A2C2E"/>
</g>
<mask id="mask0_128_21" style="mask-type:alpha" maskUnits="userSpaceOnUse" x="105" y="251" width="134" height="166">
<path d="M105.121 251.548H238.779V410.067C238.779 415.002 233.158 417.831 229.194 414.892L175.528 375.095C173.403 373.519 170.497 373.519 168.372 375.095L114.706 414.892C110.742 417.831 105.121 415.002 105.121 410.067V251.548Z" fill="#D9D9D9"/>
</mask>
<g mask="url(#mask0_128_21)">
<rect x="148.672" y="268.819" width="48.0569" height="154.683" fill="#A8FF2F"/>
</g>
<g filter="url(#filter1_d_128_21)">
<path d="M203.773 46.3431C209.2 43.649 215.785 45.744 218.657 51.0781L233.233 78.1458C234.875 81.1961 237.834 83.3177 241.25 83.8952L271.562 89.0203C277.536 90.0302 281.632 95.5958 280.82 101.6L276.702 132.065C276.238 135.498 277.385 138.954 279.809 141.429L301.32 163.392C305.559 167.72 305.601 174.631 301.416 179.011L280.177 201.238C277.784 203.742 276.68 207.211 277.186 210.639L281.679 241.051C282.565 247.045 278.537 252.66 272.577 253.744L242.33 259.242C238.921 259.861 235.989 262.019 234.384 265.089L220.143 292.334C217.336 297.704 210.777 299.879 205.318 297.252L177.616 283.922C174.495 282.419 170.854 282.442 167.751 283.982L140.215 297.653C134.789 300.347 128.204 298.252 125.331 292.918L110.756 265.851C109.113 262.8 106.155 260.679 102.739 260.101L72.4265 254.976C66.4529 253.966 62.3567 248.401 63.1682 242.397L67.2862 211.931C67.7503 208.498 66.604 205.043 64.1799 202.568L42.6691 180.604C38.43 176.276 38.3874 169.366 42.5729 164.985L63.8116 142.759C66.205 140.254 67.3087 136.785 66.8023 133.358L62.3095 102.945C61.4241 96.9518 65.4514 91.3362 71.4121 90.2528L101.659 84.7548C105.068 84.1352 108 81.9774 109.605 78.907L123.846 51.662C126.652 46.2928 133.211 44.117 138.67 46.744L166.372 60.0748C169.494 61.5771 173.134 61.5547 176.238 60.0141L203.773 46.3431Z" fill="#A8FF2F"/>
</g>
<path d="M263.791 171.668C263.791 222.366 222.692 263.464 171.994 263.464C121.297 263.464 80.198 222.366 80.198 171.668C80.198 120.97 121.297 79.8715 171.994 79.8715C222.692 79.8715 263.791 120.97 263.791 171.668ZM90.8327 171.668C90.8327 216.492 127.17 252.83 171.994 252.83C216.819 252.83 253.156 216.492 253.156 171.668C253.156 126.844 216.819 90.5061 171.994 90.5061C127.17 90.5061 90.8327 126.844 90.8327 171.668Z" fill="url(#paint0_radial_128_21)"/>
<path d="M148.356 192.328H156.481V196.028H148.356V192.328ZM148.706 199.228H157.856V203.053H143.806V185.553H157.531V189.378H148.706V199.228ZM168.604 203.053V200.528L168.279 199.903V195.253C168.279 194.503 168.045 193.928 167.579 193.528C167.129 193.112 166.404 192.903 165.404 192.903C164.754 192.903 164.095 193.012 163.429 193.228C162.762 193.428 162.195 193.712 161.729 194.078L160.129 190.853C160.895 190.353 161.812 189.97 162.879 189.703C163.962 189.42 165.037 189.278 166.104 189.278C168.304 189.278 170.004 189.787 171.204 190.803C172.42 191.803 173.029 193.378 173.029 195.528V203.053H168.604ZM164.604 203.278C163.52 203.278 162.604 203.095 161.854 202.728C161.104 202.362 160.529 201.862 160.129 201.228C159.745 200.595 159.554 199.887 159.554 199.103C159.554 198.27 159.762 197.553 160.179 196.953C160.612 196.337 161.27 195.87 162.154 195.553C163.037 195.22 164.179 195.053 165.579 195.053H168.779V197.528H166.229C165.462 197.528 164.92 197.653 164.604 197.903C164.304 198.153 164.154 198.487 164.154 198.903C164.154 199.32 164.312 199.653 164.629 199.903C164.945 200.153 165.379 200.278 165.929 200.278C166.445 200.278 166.912 200.153 167.329 199.903C167.762 199.637 168.079 199.237 168.279 198.703L168.929 200.453C168.679 201.387 168.187 202.095 167.454 202.578C166.737 203.045 165.787 203.278 164.604 203.278ZM176.027 203.053V189.503H180.552V193.453L179.877 192.328C180.277 191.312 180.927 190.553 181.827 190.053C182.727 189.537 183.819 189.278 185.102 189.278V193.553C184.885 193.52 184.694 193.503 184.527 193.503C184.377 193.487 184.21 193.478 184.027 193.478C183.06 193.478 182.277 193.745 181.677 194.278C181.077 194.795 180.777 195.645 180.777 196.828V203.053H176.027ZM195.887 189.278C196.937 189.278 197.887 189.495 198.737 189.928C199.587 190.345 200.254 190.995 200.737 191.878C201.237 192.762 201.487 193.903 201.487 195.303V203.053H196.737V196.078C196.737 195.112 196.537 194.412 196.137 193.978C195.754 193.528 195.212 193.303 194.512 193.303C194.012 193.303 193.554 193.42 193.137 193.653C192.72 193.87 192.395 194.212 192.162 194.678C191.929 195.145 191.812 195.753 191.812 196.503V203.053H187.062V189.503H191.587V193.353L190.712 192.228C191.229 191.245 191.937 190.512 192.837 190.028C193.737 189.528 194.754 189.278 195.887 189.278Z" fill="#419312"/>
<path d="M135.307 135.611H150.493C150.656 135.611 150.765 135.719 150.765 135.882V141.848C150.765 142.011 150.656 142.119 150.493 142.119H146.426V178.729C146.426 178.891 146.317 179 146.155 179H139.646C139.483 179 139.375 178.891 139.375 178.729V142.119H135.307C135.145 142.119 135.036 142.011 135.036 141.848V135.882C135.036 135.719 135.145 135.611 135.307 135.611ZM163.514 135.611H170.023C170.186 135.611 170.294 135.719 170.294 135.882V178.729C170.294 178.891 170.186 179 170.023 179H163.514C163.352 179 163.243 178.891 163.243 178.729V160.56H159.989V178.729C159.989 178.891 159.881 179 159.718 179H153.21C153.047 179 152.938 178.891 152.938 178.729V135.882C152.938 135.719 153.047 135.611 153.21 135.611H159.718C159.881 135.611 159.989 135.719 159.989 135.882V154.051H163.243V135.882C163.243 135.719 163.352 135.611 163.514 135.611ZM184.686 160.56H179.533V172.492H186.313C186.476 172.492 186.584 172.6 186.584 172.763V178.729C186.584 178.891 186.476 179 186.313 179H172.754C172.591 179 172.483 178.891 172.483 178.729V135.882C172.483 135.719 172.591 135.611 172.754 135.611H185.77C185.933 135.611 186.042 135.719 186.042 135.882V141.848C186.042 142.011 185.933 142.119 185.77 142.119H179.533V154.051H184.686C184.848 154.051 184.957 154.16 184.957 154.322V160.288C184.957 160.451 184.848 160.56 184.686 160.56ZM195.197 165.441L188.201 135.936C188.146 135.719 188.309 135.611 188.472 135.611H194.872C195.034 135.611 195.143 135.719 195.197 135.882L198.072 150.363H199.156L202.031 135.882C202.085 135.719 202.194 135.611 202.356 135.611H208.756C208.919 135.611 209.082 135.719 209.027 135.936L202.031 165.441V178.729C202.031 178.891 201.922 179 201.76 179H195.468C195.305 179 195.197 178.891 195.197 178.729V165.441Z" fill="#262626"/>
<defs>
<filter id="filter0_d_128_21" x="102.008" y="251.548" width="160.639" height="193.592" filterUnits="userSpaceOnUse" color-interpolation-filters="sRGB">
<feFlood flood-opacity="0" result="BackgroundImageFix"/>
<feColorMatrix in="SourceAlpha" type="matrix" values="0 0 0 0 0 0 0 0 0 0 0 0 0 0 0 0 0 0 127 0" result="hardAlpha"/>
<feOffset dx="10.377" dy="15.5656"/>
<feGaussianBlur stdDeviation="6.74508"/>
<feComposite in2="hardAlpha" operator="out"/>
<feColorMatrix type="matrix" values="0 0 0 0 0 0 0 0 0 0 0 0 0 0 0 0 0 0 0.25 0"/>
<feBlend mode="normal" in2="BackgroundImageFix" result="effect1_dropShadow_128_21"/>
<feBlend mode="normal" in="SourceGraphic" in2="effect1_dropShadow_128_21" result="shape"/>
</filter>
<filter id="filter1_d_128_21" x="28.8739" y="45.1694" width="286.241" height="275.509" filterUnits="userSpaceOnUse" color-interpolation-filters="sRGB">
<feFlood flood-opacity="0" result="BackgroundImageFix"/>
<feColorMatrix in="SourceAlpha" type="matrix" values="0 0 0 0 0 0 0 0 0 0 0 0 0 0 0 0 0 0 127 0" result="hardAlpha"/>
<feOffset dy="11.2633"/>
<feGaussianBlur stdDeviation="5.29377"/>
<feComposite in2="hardAlpha" operator="out"/>
<feColorMatrix type="matrix" values="0 0 0 0 0 0 0 0 0 0 0 0 0 0 0 0 0 0 0.37 0"/>
<feBlend mode="multiply" in2="BackgroundImageFix" result="effect1_dropShadow_128_21"/>
<feBlend mode="normal" in="SourceGraphic" in2="effect1_dropShadow_128_21" result="shape"/>
</filter>
<radialGradient id="paint0_radial_128_21" cx="0" cy="0" r="1" gradientUnits="userSpaceOnUse" gradientTransform="translate(171.942 172.002) rotate(145.976) scale(104.412)">
<stop offset="0.743924" stop-color="#4EC20C"/>
<stop offset="1" stop-color="#A8FF2F"/>
</radialGradient>
</defs>
</svg>
