<svg width="24" height="27" viewBox="0 0 24 27" fill="none" xmlns="http://www.w3.org/2000/svg">
<path fill-rule="evenodd" clip-rule="evenodd" d="M13.1239 0.937501C12.1417 0.370442 10.9316 0.370442 9.94942 0.937501L1.57745 5.77106C0.595279 6.33812 -0.00976562 7.38609 -0.00976562 8.5202V18.1873C-0.00976562 19.3214 0.595279 20.3694 1.57745 20.9365L9.94942 25.77C10.9316 26.3371 12.1417 26.3371 13.1239 25.77L21.4958 20.9365C22.478 20.3694 23.083 19.3214 23.083 18.1873V8.5202C23.083 7.38609 22.478 6.33812 21.4958 5.77106L13.1239 0.937501ZM11.5352 15.8936C12.9378 15.8936 14.0748 14.7566 14.0748 13.354C14.0748 11.9515 12.9378 10.8145 11.5352 10.8145C10.1327 10.8145 8.99569 11.9515 8.99569 13.354C8.99569 14.7566 10.1327 15.8936 11.5352 15.8936Z" fill="white"/>
</svg>
